<svg xmlns="http://www.w3.org/2000/svg" xmlns:xlink="http://www.w3.org/1999/xlink" xmlns:v="https://vecta.io/nano" preserveAspectRatio="xMidYMin slice" viewBox="31.14 33.28 1108.41 826.94"><style>.B{dominant-baseline:central}.C{text-anchor:end}.D{text-decoration:undefined}.E{font-family:serif}.F{fill:#bac5e0}.G{stroke-miterlimit:10}.H{fill:none}.I{font-size:24px}.J{fill:#fff}.K{font-size:28px}.L{stroke:#bac5e0}.M{stroke-dasharray:8, 3}.M.O{stroke:#f81c1c}.N{fill:#f81c1c}.O{stroke:#000}.P{text-anchor:middle}</style><path d="M782.462 143.81 h 165.5405 M 968.0025 143.81 h 165.54050000000007" paint-order="fill stroke markers" class="G H L M"/><path d="m1139.543 143.81-6-3.6v7.2z" paint-order="stroke fill markers" class="F"/><path d="M966.167 244.012 h 34.762 M 1020.9290000000001 244.012 h 20.761999999999944" paint-order="fill stroke markers" class="G H L M"/><path d="m1047.69 244.012-6-3.6v7.2z" paint-order="stroke fill markers" class="F"/><path d="M874.315 244.012 h 34.762 M 925 244.012 h 24" paint-order="fill stroke markers" class="G H L M"/><path d="m955.839 244.012-6-3.6v7.2z" paint-order="stroke fill markers" class="F"/><path d="M782.462 244.012 h 34.7625 M 837.2245 244.012 h 20.762499999999932" paint-order="fill stroke markers" class="G H L M"/><path d="m863.987 244.012-6-3.6v7.2z" paint-order="stroke fill markers" class="F"/><path d="M966.167 344.214 h 34.762 M 1020.9290000000001 344.214 h 20.761999999999944" paint-order="fill stroke markers" class="G H L M"/><path d="m1047.69 344.214-6-3.6v7.2z" paint-order="stroke fill markers" class="F"/><path d="M874.315 344.214 h 33.762 M 924.077 344.214 h 25.762000000000057" paint-order="fill stroke markers" class="G H L M"/><path d="m955.839 344.214-6-3.6v7.2z" paint-order="stroke fill markers" class="F"/><path d="M782.462 344.214 h 30 M 835 344.214 h 23" paint-order="fill stroke markers" class="G H L M"/><path d="m863.987 344.214-6-3.6v7.2z" paint-order="stroke fill markers" class="F"/><path d="M782.462 244.012 v 35.937 M 782.462 307.949 v 19.936999999999955" paint-order="fill stroke markers" class="G H L"/><path d="m782.462 333.886 3.6-6h-7.2z" paint-order="stroke fill markers" class="F"/><path d="M782.462 143.81 v 35.937 M 782.462 207.747 v 19.936999999999983" paint-order="fill stroke markers" class="G H L"/><path d="m782.462 233.684 3.6-6h-7.2z" paint-order="stroke fill markers" class="F"/><path d="M415.054 143.81 h 165.54 M 600.5939999999999 143.81 h 165.54000000000008" paint-order="fill stroke markers" class="G H L M"/><path d="m772.134 143.81-6-3.6v7.2z" paint-order="stroke fill markers" class="F"/><path d="M598.758 244.012 h 27.762 M 646.52 244.012 h 27.762000000000057" paint-order="fill stroke markers" class="G H L M"/><path d="m680.282 244.012-6-3.6v7.2z" paint-order="stroke fill markers" class="F"/><path d="M506.906 244.012 h 29.762 M 556.668 244.012 h 25.762000000000057" paint-order="fill stroke markers" class="G H L M"/><path d="m588.43 244.012-6-3.6v7.2z" paint-order="stroke fill markers" class="F"/><path d="M415.054 244.012 h 29.762 M 464.816 244.012 h 25.762" paint-order="fill stroke markers" class="G H L M"/><path d="m496.578 244.012-6-3.6v7.2z" paint-order="stroke fill markers" class="F"/><path d="M598.758 344.214 h 30.762 M 649.52 344.214 h 24.762000000000057" paint-order="fill stroke markers" class="G H L M"/><path d="m680.282 344.214-6-3.6v7.2z" paint-order="stroke fill markers" class="F"/><path d="M506.906 344.214 h 30.762 M 557.668 344.214 h 24.762000000000057" paint-order="fill stroke markers" class="G H L M"/><path d="m588.43 344.214-6-3.6v7.2z" paint-order="stroke fill markers" class="F"/><path d="M415.054 344.214 h 27.762 M 462.816 344.214 h 27.762" paint-order="fill stroke markers" class="G H L M"/><path d="m496.578 344.214-6-3.6v7.2z" paint-order="stroke fill markers" class="F"/><path d="M598.758 444.417 h 29.762 M 648.52 444.417 h 25.762000000000057" paint-order="fill stroke markers" class="G H L M"/><path d="m680.282 444.417-6-3.6v7.2z" paint-order="stroke fill markers" class="F"/><path d="M506.906 444.417 h 27.762 M 554.668 444.417 h 27.762000000000057" paint-order="fill stroke markers" class="G H L M"/><path d="m588.43 444.417-6-3.6v7.2z" paint-order="stroke fill markers" class="F"/><path d="M415.054 444.417 h 29.762 M 462.816 444.417 h 27.762" paint-order="fill stroke markers" class="G H L M"/><path d="m496.578 444.417-6-3.6v7.2z" paint-order="stroke fill markers" class="F"/><path d="M598.758 544.619 h 31.762 M 648.52 544.619 h 25.762000000000057" paint-order="fill stroke markers" class="G H L M"/><path d="m680.282 544.619-6-3.6v7.2z" paint-order="stroke fill markers" class="F"/><path d="M506.906 544.619 h 34 M 556.668 544.619 h 25.762000000000057" paint-order="fill stroke markers" class="G H L M"/><path d="m588.43 544.619-6-3.6v7.2z" paint-order="stroke fill markers" class="F"/><path d="M690.61 644.821 h 31.762 M 740.3720000000001 644.821 h 25.761999999999944" paint-order="fill stroke markers" class="G H L M"/><path d="m772.134 644.821-6-3.6v7.2z" paint-order="stroke fill markers" class="F"/><path d="M598.758 644.821 h 35 M 648.52 644.821 h 25.762000000000057" paint-order="fill stroke markers" class="G H L M"/><path d="m680.282 644.821-6-3.6v7.2z" paint-order="stroke fill markers" class="F"/><path d="M506.906 644.821 h 29.762 M 556.668 644.821 h 25.762000000000057" paint-order="fill stroke markers" class="G H L M"/><path d="m588.43 644.821-6-3.6v7.2z" paint-order="stroke fill markers" class="F"/><path d="M506.906 745.024 h 31.762 M 556.668 745.024 h 25.762000000000057" paint-order="fill stroke markers" class="G H L M"/><path d="m588.43 745.024-6-3.6v7.2z" paint-order="stroke fill markers" class="F"/><path d="M506.906 745.024 v 35.937 M 506.906 808.961 v 19.937000000000012" paint-order="fill stroke markers" class="G H L"/><path d="m506.906 834.898 3.6-6h-7.2z" paint-order="stroke fill markers" class="F"/><path d="M506.906 644.821 v 35.9375 M 506.906 708.7585 v 19.9375" paint-order="fill stroke markers" class="G H L"/><path d="m506.906 734.696 3.6-6h-7.2z" paint-order="stroke fill markers" class="F"/><path d="M506.906 544.619 v 39 M 506.906 608.556 v 19.937000000000012" paint-order="fill stroke markers" class="G H L"/><path d="m506.906 634.493 3.6-6h-7.2z" paint-order="stroke fill markers" class="F"/><path d="M415.054 544.619 h 27.762 M 464.816 544.619 h 25.762" paint-order="fill stroke markers" class="G H L M"/><path d="m496.578 544.619-6-3.6v7.2z" paint-order="stroke fill markers" class="F"/><path d="M415.054 444.417 v 35.937 M 415.054 508.354 v 19.936999999999955" paint-order="fill stroke markers" class="G H L"/><path d="m415.054 534.291 3.6-6h-7.2z" paint-order="stroke fill markers" class="F"/><path d="M415.054 344.214 v 39.9375 M 415.054 406.1515 v 21.9375" paint-order="fill stroke markers" class="G H L"/><path d="m415.054 434.089 3.6-6h-7.2z" paint-order="stroke fill markers" class="F"/><path d="M415.054 244.012 v 41.937 M 415.054 305.949 v 21.936999999999955" paint-order="fill stroke markers" class="G H L"/><path d="m415.054 333.886 3.6-6h-7.2z" paint-order="stroke fill markers" class="F"/><path d="M415.054 143.81 v 35 M 415.054 205.747 v 21.936999999999983" paint-order="fill stroke markers" class="G H L"/><path d="m415.054 233.684 3.6-6h-7.2z" paint-order="stroke fill markers" class="F"/><path d="M47.645 143.81 h 165.54 M 233.185 143.81 h 165.53999999999996" paint-order="fill stroke markers" class="G H M O"/><path d="m404.726 143.81-6-3.6v7.2z" paint-order="stroke fill markers" class="N"/><path d="M231.35 244.012 h 27.762 M 279.11199999999997 244.012 h 27.762000000000057" paint-order="fill stroke markers" class="G H L M"/><path d="m312.874 244.012-6-3.6v7.2z" paint-order="stroke fill markers" class="F"/><path d="M139.497 244.012 h 27.762500000000003 M 187.2595 244.012 h 27.762500000000017" paint-order="fill stroke markers" class="G H L M"/><path d="m221.022 244.012-6-3.6v7.2z" paint-order="stroke fill markers" class="F"/><path d="M47.645 244.012 h 29.762 M 97.40700000000001 244.012 h 25.762" paint-order="fill stroke markers" class="G H M O"/><path d="m129.17 244.012-6-3.6v7.2z" paint-order="stroke fill markers" class="N"/><path d="M231.35 344.214 h 27.762 M 279.11199999999997 344.214 h 27.762000000000057" paint-order="fill stroke markers" class="G H L M"/><path d="m312.874 344.214-6-3.6v7.2z" paint-order="stroke fill markers" class="F"/><path d="M139.497 344.214 h 27.762500000000003 M 187.2595 344.214 h 27.762500000000017" paint-order="fill stroke markers" class="G H L M"/><path d="m221.022 344.214-6-3.6v7.2z" paint-order="stroke fill markers" class="F"/><path d="M47.645 344.214 h 31.762 M 99.40700000000001 344.214 h 23.762" paint-order="fill stroke markers" class="G H M O"/><path d="m129.17 344.214-6-3.6v7.2z" paint-order="stroke fill markers" class="N"/><path d="M231.35 444.417 h 27.762 M 279.11199999999997 444.417 h 27.762000000000057" paint-order="fill stroke markers" class="G H L M"/><path d="m312.874 444.417-6-3.6v7.2z" paint-order="stroke fill markers" class="F"/><path d="M139.497 444.417 h 27.762500000000003 M 187.2595 444.417 h 27.762500000000017" paint-order="fill stroke markers" class="G H L M"/><path d="m221.022 444.417-6-3.6v7.2z" paint-order="stroke fill markers" class="F"/><path d="M47.645 444.417 h 31.762 M 99.40700000000001 444.417 h 23.762" paint-order="fill stroke markers" class="G H M O"/><path d="m129.17 444.417-6-3.6v7.2z" paint-order="stroke fill markers" class="N"/><path d="M231.35 544.619 h 36 M 279.11199999999997 544.619 h 27.762000000000057" paint-order="fill stroke markers" class="G H L M"/><path d="m312.874 544.619-6-3.6v7.2z" paint-order="stroke fill markers" class="F"/><path d="M139.497 544.619 h 27.762500000000003 M 187.2595 544.619 h 27.762500000000017" paint-order="fill stroke markers" class="G H L M"/><path d="m221.022 544.619-6-3.6v7.2z" paint-order="stroke fill markers" class="F"/><path d="M47.645 544.619 h 33.762 M 105.40700000000001 544.619 h 17.762" paint-order="fill stroke markers" class="G H M O"/><path d="m129.17 544.619-6-3.6v7.2z" paint-order="stroke fill markers" class="N"/><path d="M145.76 644.821 h 25 M 255 644.821 h 10" paint-order="fill stroke markers" class="G H L M"/><path d="m271.123 644.821-6-3.6v7.2z" paint-order="stroke fill markers" class="F"/><path d="M47.645 644.821 h 36.8935 M 108.5385 644.821 h 20.893500000000017" paint-order="fill stroke markers" class="G H M O"/><path d="m135.432 644.821-6-3.6v7.2z" paint-order="stroke fill markers" class="N"/><path d="M47.645 745.024 h 20 M 150 745.024 h 10" paint-order="fill stroke markers" class="G H M O"/><path d="m160.483 745.024-6-3.6v7.2z" paint-order="stroke fill markers" class="N"/><path d="M237.612 845.226 h 29.762 M 287.374 845.226 h 25.761999999999944" paint-order="fill stroke markers" class="G H L M"/><path d="m319.136 845.226-6-3.6v7.2z" paint-order="stroke fill markers" class="F"/><path d="M139.497 845.226 h 34.8935 M 200.39050000000003 845.226 h 20.89349999999999" paint-order="fill stroke markers" class="G H L M"/><path d="m227.284 845.226-6-3.6v7.2z" paint-order="stroke fill markers" class="F"/>

	<path d="M47.645 845.226 h 29.762 M 97.40700000000001 845.226 h 25.762" paint-order="fill stroke markers" class="G H M O"/>

	<path d="m129.17 845.226-6-3.6v7.2z" paint-order="stroke fill markers" class="N"/><path d="M47.645 745.024 v 35.937 M 47.645 808.961 v 19.937000000000012" paint-order="fill stroke markers" class="G H O"/><path d="m47.645 834.898 3.6-6h-7.2z" paint-order="stroke fill markers"/><path d="M47.645 644.821 v 35.9375 M 47.645 708.7585 v 19.9375" paint-order="fill stroke markers" class="G H O"/><path d="m47.645 734.696 3.6-6h-7.2z" paint-order="stroke fill markers"/><path d="M47.645 544.619 v 35.937 M 47.645 608.556 v 19.937000000000012" paint-order="fill stroke markers" class="G H O"/><path d="m47.645 634.493 3.6-6h-7.2z" paint-order="stroke fill markers"/><path d="M47.645 444.417 v 40.937 M 47.645 513.354 v 14.936999999999955" paint-order="fill stroke markers" class="G H O"/><path d="m47.645 534.291 3.6-6h-7.2z" paint-order="stroke fill markers"/><path d="M47.645 344.214 v 35.9375 M 47.645 408.1515 v 19.9375" paint-order="fill stroke markers" class="G H O"/><path d="m47.645 434.089 3.6-6h-7.2z" paint-order="stroke fill markers"/><path d="M47.645 244.012 v 35.937 M 47.645 307.949 v 19.936999999999955" paint-order="fill stroke markers" class="G H O"/><path d="m47.645 333.886 3.6-6h-7.2z" paint-order="stroke fill markers"/><path d="M47.645 143.81 v 35.937 M 47.645 207.747 v 19.936999999999983" paint-order="fill stroke markers" class="G H O"/><path d="m47.645 233.684 3.6-6h-7.2z" paint-order="stroke fill markers"/><path d="M47.645 43.607 v 35.9375 M 47.645 107.5445 v 19.9375" paint-order="fill stroke markers" class="G H O"/><path d="m47.645 133.482 3.6-6h-7.2z" paint-order="stroke fill markers"/><text transform="translate(962 143.81)" y="-0.5" class="B C D E F K">t</text><text transform="translate(1012.093 244.012)" y="-0.5" class="B P D E F K">n</text><text transform="translate(920.24 244.012)" y="-0.5" class="B C D E F K">l</text><text transform="translate(828.388 244.012)" y="-0.5" class="B P D E F K">p</text><text transform="translate(1012.093 344.214)" y="-0.5" class="B P D E F K">c</text><text transform="translate(920.24 344.214)" y="-0.5" class="B C D E F K">f</text><text transform="translate(830 344.214)" y="-0.5" class="B C D E F K">_</text><text transform="translate(782.462 294.113)" y="-0.5" class="B P D E F K">$</text><text transform="translate(782.462 193.91)" y="-0.5" class="B P D E F K">f</text><text transform="translate(597 143.81)" y="-0.5" class="B C D E F K">o</text><text transform="translate(644.684 244.012)" y="-0.5" class="B C D E F K">o</text><text transform="translate(552.832 244.012)" y="-0.5" class="B C D E F K">a</text><text transform="translate(460.98 244.012)" y="-0.5" class="B C D E F K">e</text><text transform="translate(644.684 344.214)" y="-0.5" class="B C D E F K">f</text><text transform="translate(552.832 344.214)" y="-0.5" class="B C D E F K">t</text><text transform="translate(460.98 344.214)" y="-0.5" class="B C D E F K">n</text><text transform="translate(644.684 444.417)" y="-0.5" class="B C D E F K">e</text><text transform="translate(552.832 444.417)" y="-0.5" class="B C D E F K">b</text><text transform="translate(460.98 444.417)" y="-0.5" class="B C D E F K">a</text><text transform="translate(644.684 544.619)" y="-0.5" class="B C D E F K">e</text><text transform="translate(552.832 544.619)" y="-0.5" class="B C D E F K">i</text><text transform="translate(736.536 644.821)" y="-0.5" class="B C D E F K">d</text><text transform="translate(644.684 644.821)" y="-0.5" class="B C D E F K">f</text><text transform="translate(552.832 644.821)" y="-0.5" class="B C D E F K">a</text><text transform="translate(552.832 745.024)" y="-0.5" class="B C D E F K">b</text><text transform="translate(506.906 795.125)" y="-0.5" class="B P D E F K">$</text><text transform="translate(506.906 694.923)" y="-0.5" class="B P D E F K">f</text><text transform="translate(506.906 594.72)" y="-0.5" class="B P D E F K">o</text><text transform="translate(460.98 544.619)" y="-0.5" class="B C D E F K">_</text><text transform="translate(415.054 494.518)" y="-0.5" class="B P D E F K">$</text><text transform="translate(415.054 394.315)" y="-0.5" class="B P D E F K">t</text><text transform="translate(415.054 294.113)" y="-0.5" class="B P D E F K">s</text><text transform="translate(415.054 193.91)" y="-0.5" class="B P D E F K">i</text><text transform="translate(228 143.81)" y="-0.5" class="B C D E K N">l</text><text transform="translate(277.276 244.012)" y="-0.5" class="B C D E F K">$</text><text transform="translate(184 244.012)" y="-0.5" class="B C D E F K">e</text><text transform="translate(93.571 244.012)" y="-0.5" class="B C D E K N">o</text><text transform="translate(275 344.214)" y="-0.5" class="B C D E F K">t</text><text transform="translate(184 344.214)" y="-0.5" class="B C D E F K">s</text><text transform="translate(93.571 344.214)" y="-0.5" class="B C D E K N">l</text><text transform="translate(276 444.417)" y="-0.5" class="B C D E F K">e</text><text transform="translate(183 444.417)" y="-0.5" class="B C D E F K">s</text><text transform="translate(93.571 444.417)" y="-0.5" class="B C D E K N">t</text><text transform="translate(277.276 544.619)" y="-0.5" class="B C D E F K">l</text><text transform="translate(185.423 544.619)" y="-0.5" class="B C D E F K">$</text><text transform="translate(93.571 544.619)" y="-0.5" class="B P D E K N">m</text><text transform="translate(213.605 644.821)" y="-0.5" class="B P D E F K">ilipinas</text><text transform="translate(96.703 644.821)" y="-0.5" class="B P D E K N">ro</text><text transform="translate(109.228 745.024)" y="-0.5" class="B P D E K N">ocracy</text><text transform="translate(283.538 845.226)" y="-0.5" class="B C D E F K">s</text><text transform="translate(188.555 845.226)" y="-0.5" class="B P D E F K">fs</text><text transform="translate(93.571 845.226)" y="-0.5" class="B C D E K N">_</text><text transform="translate(47.645 795.125)" y="-0.5" class="B P D E K">$</text><text transform="translate(47.645 694.923)" y="-0.5" class="B P D E K">a</text><text transform="translate(47.645 594.72)" y="-0.5" class="B P D E K">edi</text><text transform="translate(47.645 494.518)" y="-0.5" class="B P D E K">p</text><text transform="translate(47.645 394.315)" y="-0.5" class="B P D E K">i</text><text transform="translate(47.645 294.113)" y="-0.5" class="B P D E K">k</text><text transform="translate(47.645 193.91)" y="-0.5" class="B P D E K">i</text><text transform="translate(47.645 93.708)" y="-0.5" class="B P D E K">w</text><g class="F"><path d="M609.086 745.024a10.328 10.328 0 1 0 0 .01z" paint-order="stroke fill markers"/><path d="M609.086 745.024a10.328 10.328 0 1 0 0 .01zm-91.852 100.202a10.328 10.328 0 1 0 0 .01zm-177.442 0a10.328 10.328 0 1 0 0 .01z" paint-order="stroke fill markers"/><use href="#B" paint-order="stroke fill markers"/><path d="M247.94 845.226a10.328 10.328 0 1 0 0 .01zm-98.115 0a10.328 10.328 0 1 0 0 .01z" paint-order="stroke fill markers"/></g><use href="#B" x="-189.967" paint-order="stroke fill markers" class="N"/><path d="M517.234 745.024a10.328 10.328 0 1 0 0 .01zm-336.095 0a10.328 10.328 0 1 0 0 .01z" paint-order="stroke fill markers" class="F"/><path d="M181.139 745.024a10.328 10.328 0 1 0 0 .01zm-123.166 0a10.328 10.328 0 1 0 0 .01z" paint-order="stroke fill markers" class="N"/><g class="F"><path d="M792.79 644.821a10.328 10.328 0 1 0 0 .01z" paint-order="stroke fill markers"/><use href="#B" x="452.998" y="-200.405" paint-order="stroke fill markers"/><use href="#B" x="361.146" y="-200.405" paint-order="stroke fill markers"/><path d="M609.086 644.821a10.328 10.328 0 1 0 0 .01zm91.852-100.202a10.328 10.328 0 1 0 0 .01z" paint-order="stroke fill markers"/><use href="#B" x="361.146" y="-300.607" paint-order="stroke fill markers"/><path d="M609.086 544.619a10.328 10.328 0 1 0 0 .01zm-91.852 100.202a10.328 10.328 0 1 0 0 .01zm-225.455 0a10.328 10.328 0 1 0 0 .01z" paint-order="stroke fill markers"/><path d="M291.779 644.821a10.328 10.328 0 1 0 0 .01zm-135.691 0a10.328 10.328 0 1 0 0 .01z" paint-order="stroke fill markers"/></g><path d="M156.088 644.821a10.328 10.328 0 1 0 0 .01zm-98.115 0a10.328 10.328 0 1 0 0 .01z" paint-order="stroke fill markers" class="N"/><g class="F"><path d="M517.234 544.619a10.328 10.328 0 1 0 0 .01z" paint-order="stroke fill markers"/><use href="#C" paint-order="stroke fill markers"/><use href="#D" paint-order="stroke fill markers"/><use href="#B" x="-98.115" y="-300.607" paint-order="stroke fill markers"/></g><use href="#B" x="-189.967" y="-300.607" paint-order="stroke fill markers" class="N"/><g class="F"><path d="M1068.347 344.214a10.328 10.328 0 1 0 0 .01z" paint-order="stroke fill markers"/><path d="M1068.347 344.214a10.328 10.328 0 1 0 0 .01zm0-100.202a10.328 10.328 0 1 0 0 .01z" paint-order="stroke fill markers"/><path d="M1068.347 244.012a10.328 10.328 0 1 0 0 .01zM700.938 444.417a10.328 10.328 0 1 0 0 .01z" paint-order="stroke fill markers"/><use href="#B" x="361.146" y="-400.809" paint-order="stroke fill markers"/><path d="M609.086 444.417a10.328 10.328 0 1 0 0 .01zm275.556-100.203a10.328 10.328 0 1 0 0 .01zm91.853 0a10.328 10.328 0 1 0 0 .01z" paint-order="stroke fill markers"/><use href="#E" paint-order="stroke fill markers"/><use href="#B" x="361.146" y="-501.012" paint-order="stroke fill markers"/><path d="M609.086 344.214a10.328 10.328 0 1 0 0 .01zm-91.852 100.203a10.328 10.328 0 1 0 0 .01z" paint-order="stroke fill markers"/><use href="#C" y="-100.202" paint-order="stroke fill markers"/><use href="#D" y="-100.202" paint-order="stroke fill markers"/><use href="#B" x="-98.115" y="-400.809" paint-order="stroke fill markers"/></g><use href="#B" x="-189.967" y="-400.809" paint-order="stroke fill markers" class="N"/><g class="F"><path d="M517.234 344.214a10.328 10.328 0 1 0 0 .01z" paint-order="stroke fill markers"/><use href="#C" y="-200.405" paint-order="stroke fill markers"/><use href="#D" y="-200.405" paint-order="stroke fill markers"/><use href="#B" x="-98.115" y="-501.012" paint-order="stroke fill markers"/></g><use href="#B" x="-189.967" y="-501.012" paint-order="stroke fill markers" class="N"/><g class="F"><path d="M884.642 244.012a10.328 10.328 0 1 0 0 .01zm91.853 0a10.328 10.328 0 1 0 0 .01z" paint-order="stroke fill markers"/><use href="#E" y="-100.202" paint-order="stroke fill markers"/><path d="M609.086 244.012a10.328 10.328 0 1 0 0 .01zM792.79 143.81a10.328 10.328 0 1 0 0 .01z" paint-order="stroke fill markers"/><path d="M792.79 143.81a10.328 10.328 0 1 0 0 .01zM517.234 244.012a10.328 10.328 0 1 0 0 .01z" paint-order="stroke fill markers"/><use href="#C" y="-300.607" paint-order="stroke fill markers"/><use href="#D" y="-300.607" paint-order="stroke fill markers"/><use href="#B" x="-98.115" y="-601.214" paint-order="stroke fill markers"/></g><use href="#B" x="-189.967" y="-601.214" paint-order="stroke fill markers" class="N"/>

	<path d="M425.382 143.81a10.328 10.328 0 1 0 0 .01z" paint-order="stroke fill markers" class="N"/>

	<path id="Z" d="M57.973 143.81a10.328 10.328 0 1 0 0 .01z" paint-order="stroke fill markers"/>
	<use href="#Z" x="0" y="100.203"></use>
	<use href="#Z" x="0" y="200.406"></use>
	<use href="#Z" x="0" y="300.609"></use>
	<use href="#Z" x="0" y="400.812"></use>
	<use href="#Z" x="0" y="501.015"></use>
	<use href="#Z" x="0" y="601.218"></use>
	<use href="#Z" x="0" y="701.421"></use>

	<path d="M57.973 43.607a10.328 10.328 0 1 0 0 .01z" paint-order="stroke fill markers" class="F"/><path d="M57.973 43.607a10.328 10.328 0 1 0 0 .01z" paint-order="stroke fill markers"/><defs><path id="B" d="M339.792 845.226a10.328 10.328 0 1 0 0 .01zm-91.852 0a10.328 10.328 0 1 0 0 .01z"/><path id="C" d="M517.234 544.619a10.328 10.328 0 1 0 0 .01zm-91.852 0a10.328 10.328 0 1 0 0 .01zm-91.852 0a10.328 10.328 0 1 0 0 .01z"/><path id="D" d="M333.53 544.619a10.328 10.328 0 1 0 0 .01zm-91.853 0a10.328 10.328 0 1 0 0 .01z"/><path id="E" d="M976.495 344.214a10.328 10.328 0 1 0 0 .01zm-91.853 0a10.328 10.328 0 1 0 0 .01zm-91.852 0a10.328 10.328 0 1 0 0 .01zm-91.852 0a10.328 10.328 0 1 0 0 .01z"/></defs></svg>
