<svg xmlns="http://www.w3.org/2000/svg" xmlns:xlink="http://www.w3.org/1999/xlink" xmlns:v="https://vecta.io/nano" width="4060" height="3000" viewBox="-46 136 1570 1600" preserveAspectRatio="xMidYMin slice"><style><![CDATA[.B{fill:none}.C{stroke:#000}.D{stroke-miterlimit:10}.E{fill:#000}.F{font-family:serif}.G{font-size:32px}.H{text-decoration:normal}.I{text-anchor:middle}.J{stroke-dasharray:8,3}.K{dominant-baseline:mathematical}.L{dominant-baseline:alphabetic}]]></style>
	<!-- <rect x="-46" y="0" width="100%" height="100%" fill="#fff"/> -->
	<path paint-order="fill stroke markers" d="M166.611 175.603Q-32.548 1280.616 293.558 1256.004" class="B C D"/><path paint-order="stroke fill markers" d="M299.541 1255.553l-6.254-3.138.542 7.18 5.712-4.041z"/><path paint-order="fill stroke markers" d="M307.95 1254.918h136.543" class="B C D J"/><path paint-order="stroke fill markers" d="M450.493 1254.918l-6-3.6v7.2l6-3.6z"/><path paint-order="fill stroke markers" d="M458.926 1254.918h126.906" class="B C D J"/><path paint-order="stroke fill markers" d="M591.832 1254.918l-6-3.6v7.2l6-3.6z"/><path paint-order="fill stroke markers" d="M166.611 175.603q-136.52 936.37 175.098 925.624" class="B C D"/><path paint-order="stroke fill markers" d="M347.706 1101.021l-6.121-3.391.248 7.196 5.872-3.805z"/><path paint-order="fill stroke markers" d="M166.611 175.603Q49.364 938.512 303.161 946.11" class="B C D"/><path paint-order="stroke fill markers" d="M309.158 946.29l-5.89-3.778-.215 7.197 6.105-3.419z"/><path paint-order="fill stroke markers" d="M317.587 946.542H511.95" class="B C D J"/><path paint-order="stroke fill markers" d="M517.95 946.542l-6-3.6v7.2l6-3.6z"/><path paint-order="fill stroke markers" d="M166.611 175.603Q83.093 798.065 293.522 792.721" class="B C D"/><path paint-order="stroke fill markers" d="M299.52 792.569l-6.089-3.447.183 7.198 5.907-3.751z"/><path paint-order="fill stroke markers" d="M307.95 792.355h126.906" class="B C D J"/><path paint-order="stroke fill markers" d="M440.856 792.355l-6-3.6v7.2l6-3.6z"/><path paint-order="fill stroke markers" d="M449.289 792.355h126.906" class="B C D J"/><path paint-order="stroke fill markers" d="M582.195 792.355l-6-3.6v7.2l6-3.6z"/><path paint-order="fill stroke markers" d="M166.611 175.603Q121.64 642.45 293.521 638.498" class="B C D"/><path paint-order="stroke fill markers" d="M299.52 638.36l-6.081-3.461.165 7.198 5.916-3.737z"/><path paint-order="fill stroke markers" d="M307.95 638.167h126.906" class="B C D J"/><path paint-order="stroke fill markers" d="M440.856 638.167l-6-3.6v7.2l6-3.6z"/><path paint-order="fill stroke markers" d="M449.289 638.167h126.906" class="B C D J"/><path paint-order="stroke fill markers" d="M582.195 638.167l-6-3.6v7.2l6-3.6z"/><use href="#B" paint-order="fill stroke markers" class="B C D"/><use href="#C" paint-order="stroke fill markers"/><path paint-order="fill stroke markers" d="M307.95 483.979h126.906" class="B C D J"/><path paint-order="stroke fill markers" d="M440.856 483.979l-6-3.6v7.2l6-3.6z"/><path paint-order="fill stroke markers" d="M449.289 483.979h126.906" class="B C D J"/><path paint-order="stroke fill markers" d="M582.195 483.979l-6-3.6v7.2l6-3.6z"/><use href="#D" paint-order="fill stroke markers" class="B C D"/><use href="#E" paint-order="stroke fill markers"/><path paint-order="fill stroke markers" d="M307.95 329.791h126.906" class="B C D J"/><path paint-order="stroke fill markers" d="M440.856 329.791l-6-3.6v7.2l6-3.6z"/><path paint-order="fill stroke markers" d="M449.289 329.791h126.906" class="B C D J"/><path paint-order="stroke fill markers" d="M582.195 329.791l-6-3.6v7.2l6-3.6z"/><path paint-order="fill stroke markers" d="M166.611 175.603h550.923" class="B C D J"/><path paint-order="stroke fill markers" d="M723.534 175.603l-6-3.6v7.2l6-3.6z"/><path paint-order="fill stroke markers" d="M731.967 175.603q-83.518 622.462 126.911 617.118" class="B C D"/><path paint-order="stroke fill markers" d="M864.876 792.569l-6.089-3.447.183 7.198 5.907-3.751z"/><use href="#B" x="706.695" y="616.752" paint-order="fill stroke markers" class="B C D"/><use href="#C" x="706.694" y="616.751" paint-order="stroke fill markers"/><path paint-order="fill stroke markers" d="M873.306 792.355q32.122 155.616 126.907 154.376" class="B C D"/><path paint-order="stroke fill markers" d="M1006.213 946.653l-6.047-3.521.094 7.199 5.952-3.678z"/><path paint-order="fill stroke markers" d="M1014.645 946.542h126.906" class="B C D J"/><path paint-order="stroke fill markers" d="M1147.551 946.542l-6-3.6v7.2l6-3.6z"/><path paint-order="fill stroke markers" d="M1155.983 946.542h126.906" class="B C D J"/><path paint-order="stroke fill markers" d="M1288.89 946.542l-6-3.6v7.2l6-3.6z"/><path paint-order="fill stroke markers" d="M873.306 792.355h126.906" class="B C D J"/><path paint-order="stroke fill markers" d="M1006.212 792.355l-6-3.6v7.2l6-3.6z"/><path paint-order="fill stroke markers" d="M1014.645 792.355h126.906" class="B C D J"/><path paint-order="stroke fill markers" d="M1147.551 792.355l-6-3.6v7.2l6-3.6z"/><path paint-order="fill stroke markers" d="M731.967 175.603q-44.971 466.847 126.91 462.895" class="B C D"/><path paint-order="stroke fill markers" d="M864.875 638.36l-6.081-3.461.165 7.198 5.916-3.737z"/><path paint-order="fill stroke markers" d="M873.306 638.167h126.906" class="B C D J"/><path paint-order="stroke fill markers" d="M1006.212 638.167l-6-3.6v7.2l6-3.6z"/><path paint-order="fill stroke markers" d="M1014.645 638.167h126.906" class="B C D J"/><path paint-order="stroke fill markers" d="M1147.551 638.167l-6-3.6v7.2l6-3.6z"/><use href="#B" x="565.356" paint-order="fill stroke markers" class="B C D"/><use href="#C" x="565.356" paint-order="stroke fill markers"/><path paint-order="fill stroke markers" d="M873.306 483.979h126.906" class="B C D J"/><path paint-order="stroke fill markers" d="M1006.212 483.979l-6-3.6v7.2l6-3.6z"/><path paint-order="fill stroke markers" d="M1014.645 483.979h126.906" class="B C D J"/><path paint-order="stroke fill markers" d="M1147.551 483.979l-6-3.6v7.2l6-3.6z"/><use href="#D" x="565.356" paint-order="fill stroke markers" class="B C D"/><use href="#E" x="565.356" paint-order="stroke fill markers"/><path paint-order="fill stroke markers" d="M873.306 329.791h126.906" class="B C D J"/><path paint-order="stroke fill markers" d="M1006.212 329.791l-6-3.6v7.2l6-3.6z"/><path paint-order="fill stroke markers" d="M1014.645 329.791h126.906" class="B C D J"/><path paint-order="stroke fill markers" d="M1147.551 329.791l-6-3.6v7.2l6-3.6z"/><path paint-order="fill stroke markers" d="M731.967 175.603h550.923" class="B C D J"/><path paint-order="stroke fill markers" d="M1288.89 175.603l-6-3.6v7.2l6-3.6z"/><use href="#B" x="1130.711" paint-order="fill stroke markers" class="B C D"/><use href="#C" x="1130.711" paint-order="stroke fill markers"/><path paint-order="fill stroke markers" d="M1438.661 483.979h126.906" class="B C D J"/><path paint-order="stroke fill markers" d="M1571.567 483.979l-6-3.6v7.2l6-3.6z"/><path paint-order="fill stroke markers" d="M1580 483.979h126.906" class="B C D J"/><path paint-order="stroke fill markers" d="M1712.906 483.979l-6-3.6v7.2l6-3.6z"/><use href="#D" x="1130.711" paint-order="fill stroke markers" class="B C D"/><use href="#E" x="1130.711" paint-order="stroke fill markers"/><path paint-order="fill stroke markers" d="M1438.661 329.791h126.906" class="B C D J"/><path paint-order="stroke fill markers" d="M1571.567 329.791l-6-3.6v7.2l6-3.6z"/><path paint-order="fill stroke markers" d="M1580 329.791h126.906" class="B C D J"/><path paint-order="stroke fill markers" d="M1712.906 329.791l-6-3.6v7.2l6-3.6z"/><path paint-order="fill stroke markers" d="M1297.322 175.603h550.923" class="B C D J"/><path paint-order="stroke fill markers" d="M1854.245 175.603l-6-3.6v7.2l6-3.6z"/><path paint-order="fill stroke markers" d="M1862.678 175.603q-44.971 466.847 126.91 462.895" class="B C D"/><path paint-order="stroke fill markers" d="M1995.586 638.36l-6.081-3.461.165 7.198 5.916-3.737z"/><path paint-order="fill stroke markers" d="M2004.017 638.167h126.906" class="B C D J"/><path paint-order="stroke fill markers" d="M2136.923 638.167l-6-3.6v7.2l6-3.6z"/><path paint-order="fill stroke markers" d="M2145.355 638.167h126.906" class="B C D J"/><path paint-order="stroke fill markers" d="M2278.262 638.167l-6-3.6v7.2l6-3.6z"/><use href="#B" x="1696.067" paint-order="fill stroke markers" class="B C D"/><use href="#C" x="1696.066" paint-order="stroke fill markers"/><path paint-order="fill stroke markers" d="M2004.017 483.979h126.906" class="B C D J"/><path paint-order="stroke fill markers" d="M2136.923 483.979l-6-3.6v7.2l6-3.6z"/><path paint-order="fill stroke markers" d="M2145.355 483.979h126.906" class="B C D J"/><path paint-order="stroke fill markers" d="M2278.262 483.979l-6-3.6v7.2l6-3.6z"/><use href="#D" x="1696.067" paint-order="fill stroke markers" class="B C D"/><use href="#E" x="1696.067" paint-order="stroke fill markers"/><path paint-order="fill stroke markers" d="M2004.017 329.791h126.906" class="B C D J"/><path paint-order="stroke fill markers" d="M2136.923 329.791l-6-3.6v7.2l6-3.6z"/><path paint-order="fill stroke markers" d="M2145.355 329.791h126.906" class="B C D J"/><path paint-order="stroke fill markers" d="M2278.262 329.791l-6-3.6v7.2l6-3.6z"/><path paint-order="fill stroke markers" d="M1862.678 175.603H2413.6" class="B C D J"/><path paint-order="stroke fill markers" d="M2419.6 175.603l-6-3.6v7.2l6-3.6z"/><use href="#B" x="2261.422" paint-order="fill stroke markers" class="B C D"/><use href="#C" x="2261.422" paint-order="stroke fill markers"/><path paint-order="fill stroke markers" d="M2569.372 483.979h126.906" class="B C D J"/><path paint-order="stroke fill markers" d="M2702.278 483.979l-6-3.6v7.2l6-3.6z"/><path paint-order="fill stroke markers" d="M2710.711 483.979h126.906" class="B C D J"/><path paint-order="stroke fill markers" d="M2843.617 483.979l-6-3.6v7.2l6-3.6z"/><use href="#D" x="2261.422" paint-order="fill stroke markers" class="B C D"/><use href="#E" x="2261.422" paint-order="stroke fill markers"/><path paint-order="fill stroke markers" d="M2569.372 329.791h126.906" class="B C D J"/><path paint-order="stroke fill markers" d="M2702.278 329.791l-6-3.6v7.2l6-3.6z"/><path paint-order="fill stroke markers" d="M2710.711 329.791h126.906" class="B C D J"/><path paint-order="stroke fill markers" d="M2843.617 329.791l-6-3.6v7.2l6-3.6z"/><path paint-order="fill stroke markers" d="M2428.033 175.603h550.923" class="B C D J"/><path paint-order="stroke fill markers" d="M2984.956 175.603l-6-3.6v7.2l6-3.6z"/><path paint-order="fill stroke markers" d="M166.611 21.415V161.17" class="B C D"/><path paint-order="stroke fill markers" d="M166.611 167.17l3.6-6h-7.2l3.6 6z"/><text x="313" y="1275" class="E F G H I K"> (9, "<tspan class="LCP">wikipedia</tspan> wikipedia") </text><text x="463" y="1240" class="E F G H I L"> (9, "<tspan class="LCP">wikipedia</tspan>fs") </text><text x="605" y="1275" class="E F G H I K"> (9, "<tspan class="LCP">wikipedia</tspan>s") </text><text x="361" y="1121" class="E F G H I K"> (8, "<tspan class="LCP">wikipedi</tspan>ocracy") </text><text x="322" y="967" class="E F G H I K"> (5, "<tspan class="LCP">wikip</tspan>rofessional") </text><text x="531" y="930" class="E F G H I L"> (5, "<tspan class="LCP">wikip</tspan>ilipinas") </text><text x="313" y="812" class="E F G H I K"> (4, "<tspan class="LCP">wiki</tspan>media") </text><text x="454" y="778" class="E F G H I L"> (4, "<tspan class="LCP">wiki</tspan>") </text><text x="595" y="812" class="E F G H I K"> (4, "<tspan class="LCP">wiki</tspan>leaks") </text><text x="313" y="658" class="E F G H I K"> (3, "<tspan class="LCP">wik</tspan>tor") </text><text x="454" y="624" class="E F G H I L"> (3, "<tspan class="LCP">wik</tspan>stroemia") </text><text x="595" y="658" class="E F G H I K"> (3, "<tspan class="LCP">wik</tspan>e") </text><text x="313" y="504" class="E F G H I K"> (2, "<tspan class="LCP">wi</tspan>lliam") </text><text x="454" y="470" class="E F G H I L"> (2, "<tspan class="LCP">wi</tspan>sconsin") </text><text x="595" y="504" class="E F G H I K"> (2, "<tspan class="LCP">wi</tspan>th") </text><text x="313" y="350" class="E F G H I K"> (1, "<tspan class="LCP">w</tspan>orld") </text><text x="454" y="315" class="E F G H I L"> (1, "<tspan class="LCP">w</tspan>est") </text><text x="595" y="350" class="E F G H I K"> (1, "<tspan class="LCP">w</tspan>") </text><text x="737" y="161" class="E F G H I L"> (0, "list") </text><text x="878" y="778" class="E F G H I L"> (4, "<tspan class="LCP">list</tspan> of") </text><text x="1019" y="1121" class="E F G H I K"> (6, "<tspan class="LCP">list o</tspan>bservatory") </text><text x="1019" y="967" class="E F G H I K"> (5, "<tspan class="LCP">list </tspan>a") </text><text x="1300" y="967" class="E F G H I K"> (5, "<tspan class="LCP">list </tspan>data") </text><text x="1142" y="932" class="E F G H I L">(5, "<tspan class="LCP">list </tspan>for")</text><text x="1019" y="812" class="E F G H I K"> (4, "<tspan class="LCP">list</tspan>ings") </text><text x="1150" y="778" class="E F G H I L"> (4, "<tspan class="LCP">list</tspan>ed") </text><text x="878" y="658" class="E F G H I K"> (3, "<tspan class="LCP">lis</tspan>a") </text><text x="1019" y="624" class="E F G H I L"> (3, "<tspan class="LCP">lis</tspan>bon") </text><text x="1150" y="658" class="E F G H I K"> (3, "<tspan class="LCP">lis</tspan>e") </text><text x="878" y="504" class="E F G H I K"> (2, "<tspan class="LCP">li</tspan>ne") </text><text x="1019" y="470" class="E F G H I L"> (2, "<tspan class="LCP">li</tspan>ttle") </text><text x="1150" y="504" class="E F G H I K"> (2, "<tspan class="LCP">li</tspan>fe") </text><text x="878" y="350" class="E F G H I K"> (1, "<tspan class="LCP">l</tspan>eague") </text><text x="1019" y="315" class="E F G H I L"> (1, "<tspan class="LCP">l</tspan>a") </text><text x="1150" y="350" class="E F G H I K"> (1, "<tspan class="LCP">l</tspan>ove") </text><text x="1302" y="161" class="E F G H I L"> (0, "of") </text><text x="1443" y="504" class="E F G H I K"> (2, "<tspan class="LCP">of</tspan> the") </text><text x="1726" y="504" class="E F G H I K"> (2, "<tspan class="LCP">of</tspan>c") </text><text x="1443" y="350" class="E F G H I K"> (1, "<tspan class="LCP">o</tspan>pen") </text><text x="1726" y="350" class="E F G H I K"> (1, "<tspan class="LCP">o</tspan>n") </text><text x="2433" y="161" class="E F G H I L"> (0, "in") </text><text x="2574" y="504" class="E F G H I K"> (2, "<tspan class="LCP">in</tspan> the") </text><text x="2715" y="470" class="E F G H I L"> (2, "<tspan class="LCP">in</tspan>ternational") </text><text x="2857" y="504" class="E F G H I K"> (2, "<tspan class="LCP">in</tspan>stitute") </text><text x="2574" y="350" class="E F G H I K"> (1, "<tspan class="LCP">i</tspan>") </text><text x="2715" y="315" class="E F G H I L"> (1, "<tspan class="LCP">i</tspan>sland") </text><text x="2857" y="350" class="E F G H I K"> (1, "<tspan class="LCP">i</tspan>i") </text><text x="2998" y="161" class="E F G H I L"> (0, "film") </text><text x="158" y="159" text-anchor="end" class="E F G H L"> (0, "wikipedia") </text><use href="#F" paint-order="stroke fill markers"/><use href="#F" x="-414.38" y="154.188" paint-order="stroke fill markers"/><use href="#F" x="-555.718" y="154.188" paint-order="stroke fill markers"/><use href="#F" x="-706.694" y="154.188" paint-order="stroke fill markers"/><use href="#F" x="-658.51" paint-order="stroke fill markers"/><use href="#F" x="282.678" y="-154.188" paint-order="stroke fill markers"/><use href="#F" x="141.339" y="-154.188" paint-order="stroke fill markers"/><use href="#F" y="-154.188" paint-order="stroke fill markers"/><use href="#F" x="141.339" y="-308.375" paint-order="stroke fill markers"/><use href="#F" y="-308.375" paint-order="stroke fill markers"/><use href="#F" x="-488.261" y="-154.188" paint-order="stroke fill markers"/><use href="#F" x="-697.057" y="-154.188" paint-order="stroke fill markers"/><use href="#F" x="-141.339" y="-308.375" paint-order="stroke fill markers"/><use href="#F" x="-424.016" y="-308.375" paint-order="stroke fill markers"/><use href="#F" x="-565.355" y="-308.375" paint-order="stroke fill markers"/><use href="#F" x="-706.694" y="-308.375" paint-order="stroke fill markers"/><use href="#F" x="1837.405" y="-616.751" paint-order="stroke fill markers"/><use href="#F" x="1696.067" y="-616.751" paint-order="stroke fill markers"/><use href="#F" x="1554.728" y="-616.751" paint-order="stroke fill markers"/><use href="#F" x="1130.711" y="-462.563" paint-order="stroke fill markers"/><use href="#F" x="1272.05" y="-462.563" paint-order="stroke fill markers"/><use href="#F" x="989.372" y="-462.563" paint-order="stroke fill markers"/><use href="#F" x="1130.711" y="-616.751" paint-order="stroke fill markers"/><use href="#F" x="1272.05" y="-616.751" paint-order="stroke fill markers"/><use href="#F" x="989.372" y="-616.751" paint-order="stroke fill markers"/><use href="#F" x="706.695" y="-616.751" paint-order="stroke fill markers"/><use href="#F" x="1837.405" y="-770.939" paint-order="stroke fill markers"/><use href="#F" x="1696.067" y="-770.939" paint-order="stroke fill markers"/><use href="#F" x="1554.728" y="-770.939" paint-order="stroke fill markers"/><use href="#F" x="1978.744" y="-925.127" paint-order="stroke fill markers"/><use href="#F" x="1413.389" y="-925.127" paint-order="stroke fill markers"/><use href="#F" x="1130.711" y="-770.939" paint-order="stroke fill markers"/><use href="#F" x="1272.05" y="-770.939" paint-order="stroke fill markers"/><use href="#F" x="989.372" y="-770.939" paint-order="stroke fill markers"/><use href="#F" x="706.695" y="-770.939" paint-order="stroke fill markers"/><use href="#F" x="848.033" y="-925.127" paint-order="stroke fill markers"/><use href="#F" x="141.339" y="-462.563" paint-order="stroke fill markers"/><use href="#F" y="-462.563" paint-order="stroke fill markers"/><use href="#F" x="424.017" y="-616.751" paint-order="stroke fill markers"/><use href="#F" x="565.356" y="-616.751" paint-order="stroke fill markers"/><use href="#F" x="141.339" y="-616.751" paint-order="stroke fill markers"/><use href="#F" y="-616.751" paint-order="stroke fill markers"/><use href="#F" x="-141.339" y="-462.563" paint-order="stroke fill markers"/><use href="#F" x="-424.016" y="-462.563" paint-order="stroke fill markers"/><use href="#F" x="-565.355" y="-462.563" paint-order="stroke fill markers"/><use href="#F" x="-706.694" y="-462.563" paint-order="stroke fill markers"/><use href="#F" x="-141.339" y="-616.751" paint-order="stroke fill markers"/><use href="#F" x="-424.016" y="-616.751" paint-order="stroke fill markers"/><use href="#F" x="-565.355" y="-616.751" paint-order="stroke fill markers"/><use href="#F" x="-706.694" y="-616.751" paint-order="stroke fill markers"/><use href="#F" x="424.017" y="-770.939" paint-order="stroke fill markers"/><use href="#F" x="565.356" y="-770.939" paint-order="stroke fill markers"/><use href="#F" x="141.339" y="-770.939" paint-order="stroke fill markers"/><use href="#F" y="-770.939" paint-order="stroke fill markers"/><use href="#F" x="282.678" y="-925.127" paint-order="stroke fill markers"/><use href="#F" x="-141.339" y="-770.939" paint-order="stroke fill markers"/><use href="#F" x="-424.016" y="-770.939" paint-order="stroke fill markers"/><use href="#F" x="-565.355" y="-770.939" paint-order="stroke fill markers"/><use href="#F" x="-706.694" y="-770.939" paint-order="stroke fill markers"/><use href="#F" x="-282.677" y="-925.127" paint-order="stroke fill markers"/><use href="#F" x="-848.033" y="-925.127" paint-order="stroke fill markers"/><use href="#F" x="-848.033" y="-1079.315" paint-order="stroke fill markers"/><defs><path id="B" d="M166.611 175.603q-6.424 311.231 126.909 308.655"/><path id="C" d="M299.519 484.142l-6.068-3.483.139 7.199 5.929-3.715z"/><path id="D" d="M166.611 175.603q32.122 157.859 126.914 154.673"/><path id="E" d="M299.522 330.074l-6.118-3.396.242 7.196 5.876-3.8z"/><path id="F" d="M1023.077 1100.73a8.433 8.433 0 1 0 0 .008z"/></defs>
	<style>tspan.LCP { text-decoration: underline; font-weight: bold; }</style></svg>
