<svg xmlns="http://www.w3.org/2000/svg" xmlns:xlink="http://www.w3.org/1999/xlink" xmlns:v="https://vecta.io/nano" preserveAspectRatio="xMidYMin slice" viewBox="195 134 1415 1320" width="9000" height="8400">

<style>
#heap-like_DynSDT .B{font-family:serif}
#heap-like_DynSDT .C{font-size:22pt}
#heap-like_DynSDT .D{text-decoration:undefined}
#heap-like_DynSDT .E{text-anchor:middle}
#heap-like_DynSDT .F{dominant-baseline:alphabetic}
#heap-like_DynSDT .G{fill:#000}
#heap-like_DynSDT .H{fill:none}
#heap-like_DynSDT .I{stroke:#000}
#heap-like_DynSDT .J{stroke-miterlimit:10}
#heap-like_DynSDT .K{stroke-width:4.339}
#heap-like_DynSDT .L{stroke-dasharray:8,3}
#heap-like_DynSDT .M{fill:#fff}
#heap-like_DynSDT .N{dominant-baseline:central}
#heap-like_DynSDT tspan.LCP { text-decoration: underline; font-weight: bold; }
</style>
	<!-- <rect x="0" y="0" width="120%" height="100%" fill="#fff" /> -->
	<path paint-order="fill stroke markers" d="M420.105 173 v 123 M 420.105 325 v 12" class="H I J K L"/><use href="#K" paint-order="stroke fill markers"/><path paint-order="fill stroke markers" d="M420.105 355 v 125 M 420.105 512 v 12" class="H I J K L"/><use href="#K" y="181.68" paint-order="stroke fill markers"/><path paint-order="fill stroke markers" d="M420.105 537 v 125 M 420.105 694 v 12" class="H I J K L"/><use href="#K" y="363.359" paint-order="stroke fill markers"/><path paint-order="fill stroke markers" d="M420.105 719 v 125 M 420.105 876 v 12" class="H I J K L"/><use href="#K" y="545.039" paint-order="stroke fill markers"/><path paint-order="fill stroke markers" d="M420.105 900 v 125 M 420.105 1057 v 12" class="H I J K L"/><use href="#K" y="726.718" paint-order="stroke fill markers"/><path paint-order="fill stroke markers" d="M420.105 1082 v 125 M 420.105 1239 v 12" class="H I J K L"/><use href="#K" y="908.398" paint-order="stroke fill markers"/><path paint-order="fill stroke markers" d="M420.105 1264 v 125 M 420.105 1421 v 12" class="H I J K L"/><use href="#K" y="1090.077" paint-order="stroke fill markers"/><path paint-order="fill stroke markers" d="M1585.882 173 v 125 M 1585.882 330 v 12" class="H I J K L"/><use href="#K" x="1165.777" paint-order="stroke fill markers"/><path paint-order="fill stroke markers" d="M1585.882 355 v 126 M 1585.882 512 v 12" class="H I J K L"/><use href="#K" x="1165.777" y="181.68" paint-order="stroke fill markers"/><path paint-order="fill stroke markers" d="M1086.264 173 v 488 M 1086.264 693 v 12" class="H I J K L"/><use href="#K" x="666.159" y="363.359" paint-order="stroke fill markers"/><path paint-order="fill stroke markers" d="M1086.264 719 v 125 M 1086.264 876 v 12" class="H I J K L"/><use href="#K" x="666.159" y="545.039" paint-order="stroke fill markers"/><path paint-order="fill stroke markers" d="M1086.264 900 v 125 M 1086.264 1057 v 12" class="H I J K L"/><use href="#K" x="666.159" y="726.718" paint-order="stroke fill markers"/><path paint-order="fill stroke markers" d="M1086.264 1082 v 125 M 1086.264 1239 v 12" class="H I J K L"/><use href="#K" x="666.159" y="908.398" paint-order="stroke fill markers"/><path paint-order="fill stroke markers" d="M1585.882 719 v 116 M 1585.882 864 v 22" class="H I J K L"/><use href="#K" x="1165.777" y="545.039" paint-order="stroke fill markers"/><path paint-order="fill stroke markers" d="M1585.882 901.68 v 112 M1585.882 1044v20" class="H I J K L"/><use href="#K" x="1165.777" y="726.718" paint-order="stroke fill markers" style="&#10;"/><path paint-order="fill stroke markers" d="M420.105 901.68H569.29" class="H I J K"/><use href="#L" paint-order="stroke fill markers"/><path paint-order="fill stroke markers" d="M586.645 901.68H735.83" class="H I J K"/><use href="#L" x="166.539" paint-order="stroke fill markers"/><path paint-order="fill stroke markers" d="M420.105 1265.039H735.83" class="H I J K"/><use href="#L" x="166.539" y="363.359" paint-order="stroke fill markers"/><path paint-order="fill stroke markers" d="M420.105 1083.359H569.29" class="H I J K"/><use href="#L" y="181.679" paint-order="stroke fill markers"/><path paint-order="fill stroke markers" d="M586.645 1083.359H735.83" class="H I J K"/><use href="#L" x="166.539" y="181.679" paint-order="stroke fill markers"/><path paint-order="fill stroke markers" d="M420.105 720H569.29" class="H I J K"/><path paint-order="stroke fill markers" d="M580.137 720l-10.847-6.508v13.016L580.137 720z"/><path paint-order="fill stroke markers" d="M586.645 720H735.83" class="H I J K"/><path paint-order="stroke fill markers" d="M746.676 720l-10.847-6.508v13.016L746.676 720z"/><path paint-order="fill stroke markers" d="M420.105 538.32H569.29" class="H I J K"/><use href="#L" y="-363.36" paint-order="stroke fill markers"/><path paint-order="fill stroke markers" d="M586.645 538.32H735.83" class="H I J K"/><use href="#L" x="166.539" y="-363.36" paint-order="stroke fill markers"/><path paint-order="fill stroke markers" d="M420.105 356.641H569.29" class="H I J K"/><use href="#L" y="-545.039" paint-order="stroke fill markers"/><path paint-order="fill stroke markers" d="M586.645 356.641H735.83" class="H I J K"/><use href="#L" x="166.539" y="-545.039" paint-order="stroke fill markers"/><path paint-order="fill stroke markers" d="M287.026 174.961h116.725" class="H I J K"/><use href="#L" x="-166.54" y="-726.719" paint-order="stroke fill markers"/><path paint-order="fill stroke markers" d="M420.105 174.961h648.804" class="H I J K"/><use href="#L" x="499.619" y="-726.719" paint-order="stroke fill markers"/><path paint-order="fill stroke markers" d="M1086.264 174.961h482.264" class="H I J K"/><use href="#L" x="999.237" y="-726.719" paint-order="stroke fill markers"/><path paint-order="fill stroke markers" d="M1086.264 1265.039h149.185" class="H I J K"/><use href="#L" x="666.158" y="363.359" paint-order="stroke fill markers"/><path paint-order="fill stroke markers" d="M1252.803 1265.039h149.185" class="H I J K"/><use href="#L" x="832.698" y="363.359" paint-order="stroke fill markers"/><path paint-order="fill stroke markers" d="M1086.264 1083.359h149.185" class="H I J K"/><use href="#L" x="666.158" y="181.679" paint-order="stroke fill markers"/><path paint-order="fill stroke markers" d="M1252.803 1083.359h149.185" class="H I J K"/><use href="#L" x="832.698" y="181.679" paint-order="stroke fill markers"/><path paint-order="fill stroke markers" d="M1086.264 901.68h149.185" class="H I J K"/><use href="#L" x="666.158" paint-order="stroke fill markers"/><path paint-order="fill stroke markers" d="M1252.803 901.68h149.185" class="H I J K"/><use href="#L" x="832.698" paint-order="stroke fill markers"/><path paint-order="fill stroke markers" d="M1086.264 720h482.264" class="H I J K"/><use href="#L" x="999.237" y="-181.68" paint-order="stroke fill markers"/><text x="414" y="320" class="B C D E F G">(1, "<tspan class="LCP">w</tspan>orld", 30978)</text><text x="414" y="503.872" class="B C D E F G">(2, "<tspan class="LCP">wi</tspan>lliam", 27706)</text><text x="414" y="685.872" class="B C D E F G">(3, "<tspan class="LCP">wik</tspan>tor", 36)</text><text x="414" y="867.872" class="B C D E F G">(9, "<tspan class="LCP">wikipedia</tspan> wikipedia", 18)</text><text x="414" y="1048.872" class="B C D E F G">(4, "<tspan class="LCP">wiki</tspan>media", 17)</text><text x="414" y="1230.872" class="B C D E F G">(5, "<tspan class="LCP">wikip</tspan>rofessional", 1)</text><text x="414" y="1412.872" class="B C D E F G">(8, "<tspan class="LCP">wikipedi</tspan>ocracy", 1)</text><text x="1520" y="322.872" class="B C D E F G">(5, "<tspan class="LCP">list </tspan>a", 50)</text><text x="1465" y="503.872" class="B C D E F G">(6, "<tspan class="LCP">list o</tspan>bservatory", 1)</text><text x="1080" y="685.872" class="B C D E F G">(0, "of", 98750)</text><text x="1080" y="867.872" class="B C D E F G">(1, "<tspan class="LCP">l</tspan>eague", 22168)</text><text x="1080" y="1048.872" class="B C D E F G">(2, "<tspan class="LCP">li</tspan>ne", 6574)</text><text x="1080" y="1230.872" class="B C D E F G">(3, "<tspan class="LCP">lis</tspan>a", 1342)</text><text x="1494" y="858" class="B C D E F G">(2, "<tspan class="LCP">of</tspan> the", 46771)</text><text x="1500" y="1038" class="B C D E F G">(1, "<tspan class="LCP">o</tspan>pen", 13563)</text><text x="590.238" y="923.33" class="B C D E G N">(9, "<tspan class="LCP">wikipedia</tspan>fs", 1)</text><text x="757.238" y="889.028" class="B C D E F G">(9, "<tspan class="LCP">wikipedia</tspan>s", 1)</text><text x="757.238" y="1286.33" class="B C D E G N">(5, "<tspan class="LCP">wikip</tspan>ilipinas", 1)</text><text x="590.238" y="1104.33" class="B C D E G N">(4, "<tspan class="LCP">wiki</tspan>", 17)</text><text x="757.238" y="1071.028" class="B C D E F G">(4, "<tspan class="LCP">wiki</tspan>leaks", 8)</text><text x="590.238" y="741.33" class="B C D E G N">(3, "<tspan class="LCP">wik</tspan>stroemia", 35)</text><text x="757.238" y="707.028" class="B C D E F G">(3, "<tspan class="LCP">wik</tspan>e", 17)</text><text x="590.238" y="559.33" class="B C D E G N">(2, "<tspan class="LCP">wi</tspan>sconsin", 6221)</text><text x="757.238" y="526.028" class="B C D E F G">(2, "<tspan class="LCP">wi</tspan>th", 5918)</text><text x="590.238" y="378.33" class="B C D E G N">(1, "<tspan class="LCP">w</tspan>est", 17837)</text><text x="757.238" y="344.028" class="B C D E F G">(1, "<tspan class="LCP">w</tspan>", 8393)</text><text x="424.238" y="162.028" class="B C D E F G">(0, "list", 101139)</text><text x="1090.238" y="162.028" class="B C D E F G">(4, "<tspan class="LCP">list</tspan> of", 100625)</text><text x="1490" y="162.028" class="B C D E F G">(4, "<tspan class="LCP">list</tspan>ings", 2974)</text><text x="1256.238" y="1287" class="B C D E G N">(3, "<tspan class="LCP">lis</tspan>bon", 303)</text><text x="1423.238" y="1253.028" class="B C D E F G">(3, "<tspan class="LCP">lis</tspan>e", 136)</text><text x="1256.238" y="1104.33" class="B C D E G N">(2, "<tspan class="LCP">li</tspan>ttle", 6371)</text><text x="1423.238" y="1071.028" class="B C D E F G">(2, "<tspan class="LCP">li</tspan>fe", 5939)</text><text x="1256.238" y="923.33" class="B C D E G N">(1, "<tspan class="LCP">l</tspan>a", 16693)</text><text x="1423.238" y="889.028" class="B C D E F G">(1, "<tspan class="LCP">l</tspan>ove", 10529)</text><text x="1510" y="707.028" class="B C D E F G">(0, "the", 66985)</text><text xmlns="http://www.w3.org/2000/svg" x="291" y="205" class="B C D E F G">(0, "wikipedia", <tspan x="360" dy="32">1220297</tspan>)</text><use href="#M" paint-order="stroke fill markers"/><use href="#M" x="-166.54" paint-order="stroke fill markers"/><use href="#M" x="-333.08" paint-order="stroke fill markers"/><use href="#M" x="-999.238" y="181.679" paint-order="stroke fill markers"/><use href="#M" x="-666.159" paint-order="stroke fill markers"/><use href="#M" x="-999.238" paint-order="stroke fill markers"/><use href="#M" y="-181.68" paint-order="stroke fill markers"/><use href="#M" x="166.539" y="-181.68" paint-order="stroke fill markers"/><use href="#M" x="-166.54" y="-181.68" paint-order="stroke fill markers"/><use href="#M" x="-333.08" y="-181.68" paint-order="stroke fill markers"/><use href="#M" y="-363.359" paint-order="stroke fill markers"/><use href="#M" x="166.539" y="-363.359" paint-order="stroke fill markers"/><use href="#M" x="-166.54" y="-363.359" paint-order="stroke fill markers"/><use href="#M" x="-333.08" y="-363.359" paint-order="stroke fill markers"/><use href="#M" x="-666.159" y="-181.68" paint-order="stroke fill markers"/><use href="#M" x="-832.698" y="-181.68" paint-order="stroke fill markers"/><use href="#M" x="-999.238" y="-181.68" paint-order="stroke fill markers"/><use href="#M" x="-666.159" y="-363.359" paint-order="stroke fill markers"/><use href="#M" x="-832.698" y="-363.359" paint-order="stroke fill markers"/><use href="#M" x="-999.238" y="-363.359" paint-order="stroke fill markers"/><use href="#M" x="166.539" y="-545.039" paint-order="stroke fill markers"/><use href="#M" x="-333.08" y="-545.039" paint-order="stroke fill markers"/><use href="#M" x="166.539" y="-726.719" paint-order="stroke fill markers"/><use href="#M" x="-666.159" y="-545.039" paint-order="stroke fill markers"/><use href="#M" x="-832.698" y="-545.039" paint-order="stroke fill markers"/><use href="#M" x="-999.238" y="-545.039" paint-order="stroke fill markers"/><use href="#M" x="-666.159" y="-726.719" paint-order="stroke fill markers"/><use href="#M" x="-832.698" y="-726.719" paint-order="stroke fill markers"/><use href="#M" x="-999.238" y="-726.719" paint-order="stroke fill markers"/><use href="#M" x="166.539" y="-908.398" paint-order="stroke fill markers"/><use href="#M" x="166.539" y="-1090.078" paint-order="stroke fill markers"/><use href="#M" x="-333.08" y="-1090.078" paint-order="stroke fill markers"/><use href="#M" x="-666.159" y="-908.398" paint-order="stroke fill markers"/><use href="#M" x="-832.698" y="-908.398" paint-order="stroke fill markers"/><use href="#M" x="-999.238" y="-908.398" paint-order="stroke fill markers"/><use href="#M" x="-999.238" y="-1090.078" paint-order="stroke fill markers"/><use href="#M" x="-1132.317" y="-1090.078" paint-order="stroke fill markers"/>
	<defs>
	<path id="K" d="M420.105 350.133l6.508-10.847h-13.016l6.508 10.847z"/>
	<path id="L" d="M580.137 901.68l-10.847-6.508v13.016l10.847-6.508z"/>
	<path id="M" d="M1425.851 1265.039a6.508 6.508 0 1 0 0 .007z"/>
	</defs>
</svg>
